<?xml version="1.0" encoding="utf-8"?>
<!-- Generator: Adobe Illustrator 24.1.3, SVG Export Plug-In . SVG Version: 6.00 Build 0)  -->
<svg version="1.1" id="Layer_1" xmlns="http://www.w3.org/2000/svg" xmlns:xlink="http://www.w3.org/1999/xlink" x="0px" y="0px"
	 viewBox="0 0 512 512" style="enable-background:new 0 0 512 512;" xml:space="preserve">
<g>
	<path d="M455.7,118.4c12.2,0,23,4.7,32.3,14c9.3,9.3,14,20.1,14,32.3v77.2H8v-77.2c0-12.2,4.7-23,14-32.3c9.3-9.3,20.1-14,32.3-14
		h77.2V72c0-12.2,4.7-23,14-32.3c9.3-9.3,20.1-14,32.3-14h154.4c12.2,0,23,4.7,32.3,14c9.3,9.3,14,20.1,14,32.3v46.3H455.7z
		 M316.8,319.1v-46.3H502v138.9c0,12.2-4.7,23-14,32.3c-9.3,9.3-20.1,14-32.3,14H54.3c-12.2,0-23-4.7-32.3-14
		c-9.3-9.3-14-20.1-14-32.3V272.7h185.3v46.3c0,4.5,1.4,8.2,4.3,11.1c2.9,2.9,6.6,4.3,11.1,4.3h92.6c4.5,0,8.2-1.4,11.1-4.3
		C315.3,327.3,316.8,323.6,316.8,319.1z M316.8,118.4V87.5H193.3v30.9H316.8z"/>
</g>
</svg>
