<svg xmlns="http://www.w3.org/2000/svg" xmlns:xlink="http://www.w3.org/1999/xlink" viewBox="0 0 682.1 497.8"><style><![CDATA[.J{fill:#f59120}.K{fill:#e02127}.L{fill:#ba2127}]]></style><path d="M304.7 144H362v178.4h-57.3zm68.8.2v177.9c15.1-1.8 26.8-14.7 26.8-30.3V174.5c0-15.6-11.7-28.5-26.8-30.3zm-80.4 0c-15 2-26.5 14.8-26.5 30.3v117.2c0 15.5 11.6 28.3 26.5 30.3V144.2z" fill="#fff"/><path d="M302.9 344.4h-8.3a1.54 1.54 0 0 1-1.5-1.5v-14.8a1.54 1.54 0 0 1 1.5-1.5h8.3a1.54 1.54 0 0 1 1.5 1.5v14.8a1.47 1.47 0 0 1-1.5 1.5zm68.9 0h-8.3a1.54 1.54 0 0 1-1.5-1.5v-14.8a1.54 1.54 0 0 1 1.5-1.5h8.3a1.54 1.54 0 0 1 1.5 1.5v14.8c-.1.8-.7 1.5-1.5 1.5z" class="J"/><path d="M349 57.1h-31.5c-4.6 0-8.3 4-8.3 8.9v78h7.2V66c0-.7.5-1.3 1.1-1.3H349c.6 0 1.1.6 1.1 1.3v78h7.1V66c.1-4.9-3.6-8.9-8.2-8.9z" fill="#fff"/><path d="M315 163.8h37v7.1h-37z" class="J"/><path d="M47.1 480c-7.5 0-12.7-3.7-12.7-7.9v-6.3h.5c2.2 1.3 6.2 2.2 10.3 2.2 6.2 0 8.5-2.7 8.5-8.2v-49.4h4.6c6.1 0 9.2 3.2 9.2 9.3v40.7c-.1 11.2-6.4 19.6-20.4 19.6zm54.2-.3h-2.7c-12.8 0-21.6-7.2-21.6-17.1 0-9.6 7-16.9 26.8-16.9h4.7v-.7c0-7.6-3.6-9.9-11.6-9.9-9.7 0-15.1 3.7-17.1 6.2h-.5V437c0-6 5.4-13.2 19.6-13.2 12 0 22.8 5.6 22.8 24.2v12.4c-.1 11.4-8.4 19.3-20.4 19.3zm7.3-24.4h-4.8c-10.2 0-13.1 2.4-13.1 6.8 0 4.2 3.4 6.7 9.3 6.7 5.8 0 8.6-2.8 8.6-8.3v-5.2zm56.7 23.5H139c-6.2 0-9.2-2.9-9.2-7.1 0-4.1 3.1-9.3 8.2-14.8l13.6-14.8c1.6-1.8 3.7-4.3 4.6-6.1h-26.5v-4c0-4 2.9-7.1 8.9-7.1h24.5c6.3 0 8.4 3.8 8.4 6.9 0 4.2-2.2 9.2-6.9 14.3l-13.5 14.6c-1.9 2.1-3.9 4.5-5.1 6.7h26.2v5.2c0 3.2-3.5 6.2-6.9 6.2zm50.4 0h-26.3c-6.2 0-9.2-2.9-9.2-7.1 0-4.1 3.1-9.3 8.2-14.8l13.6-14.8c1.6-1.8 3.7-4.3 4.6-6.1h-26.5v-4c0-4 2.9-7.1 8.9-7.1h24.5c6.3 0 8.4 3.8 8.4 6.9 0 4.2-2.2 9.2-6.9 14.3l-13.5 14.6c-1.9 2.1-3.9 4.5-5.1 6.7h26.2v5.2c0 3.2-3.5 6.2-6.9 6.2zm112.4 0c-5.2 0-8.8-2.9-8.8-9.1 0-8.7-1.5-33.7-2.6-40.5-.9 2.2-2.2 5-3.2 8.1l-9.6 29.4c-1.6 4.9-3.7 9.5-5.6 12.2h-3.7c-4.5 0-8.5-3.5-11-10.9l-9.8-28.9a186.12 186.12 0 0 0-3.8-10c-1.8 9.8-3 37.2-3 49.7h-4.8c-5.1 0-8.6-3.3-8.6-9.1 0-15.3 3-45.7 5.5-59.3h2.9c9.5 0 16.2 4.3 18.8 11.6l9.5 26.8c2.1 5.8 3.3 9.9 3.9 13 .5-2.6 1.2-4.7 1.9-7l7.9-24.3c3.5-10.9 7.9-17.8 10.7-20.1h1.6c7.6 0 12.6 4.8 13.7 14.2 1.3 10.8 3.3 40.5 3.3 54.2h-5.2zm41.3-55.1c16.2 0 25.5 13 25.5 27.3 0 16.2-9.3 29.1-26.7 29.1-16.2 0-25.5-12.9-25.5-27.2 0-16.2 9.3-29.2 26.7-29.2zm-1.2 12c-7.7 0-11.6 6.4-11.6 15.3 0 10.7 3.9 17.1 12.8 17.1 7.8 0 11.6-6.4 11.6-15.2 0-10.8-4-17.2-12.8-17.2zm53.4 44.3c-9.9 0-17.3-5.1-17.3-10.6v-6.1h.5c2.9 2.7 9.8 5.1 16.2 5.1 6.6 0 9.8-1.9 9.8-5.9 0-3.1-1.9-4.6-11.2-5.9-11.4-1.6-16.9-6.1-16.9-14.3 0-10.1 9.1-18.7 22.9-18.7 12.2 0 17.2 6.3 17.2 11.5v5.1h-.5c-2.8-2.8-9-5-15.4-5-8.2 0-10.8 2.5-10.8 6 0 2.7 1.6 3.8 10.8 5.3 11.2 1.8 17.2 6.7 17.2 15.3 0 11.4-8 18.2-22.5 18.2zm54.7-.3h-2.7c-12.8 0-21.6-7.2-21.6-17.1 0-9.6 7-16.9 26.8-16.9h4.7v-.7c0-7.6-3.6-9.9-11.6-9.9-9.7 0-15.1 3.7-17.1 6.2h-.5V437c0-6 5.4-13.2 19.6-13.2 12 0 22.8 5.6 22.8 24.2v12.4c0 11.4-8.4 19.3-20.4 19.3zm7.3-24.4h-4.8c-10.2 0-13.1 2.4-13.1 6.8 0 4.2 3.4 6.7 9.3 6.7 5.8 0 8.6-2.8 8.6-8.3v-5.2zm54.5-36.4c-2.1-.7-4.5-1.2-7.8-1.2-5.5 0-9.6 1.9-9.6 9.1v4.8h15.4v3.7c0 4.8-5.1 7.6-9.6 7.6h-5.8v35.9h-5.4c-4.3 0-8.1-3.3-8.1-8v-45.1c0-7.6 5.3-19.8 21-19.8 5.8 0 10.3 3.2 10.3 8.5v4.5h-.4zm14.2 2.2c-4.3 0-7.8-3.6-7.8-7.9s3.5-7.8 7.8-7.8 7.9 3.5 7.9 7.8-3.6 7.9-7.9 7.9zm9.5 58.2c-10.4 0-16.1-5.9-16.1-16.8v-36.4h3.8c6 0 9.6 3.2 9.6 10v25.2c0 5.4 2.3 7.1 8.2 7.1h2.5v2.9c0 5.7-2.3 8-8 8zm46-41.3c-2-.8-4.3-1.6-7.8-1.6-6 0-9.3 3.3-9.3 11.5v31H587c-6 0-9.8-3-9.8-8.6v-24.8c0-10.8 5.7-21.1 19.9-21.1 8.3 0 11.2 4.7 11.2 8.8v4.8h-.5z" fill="#161616"/><path d="M475.2 377.2H167.5c-14.9 0-27-12.1-27-27V42.6c0-14.9 12.1-27 27-27h307.7c14.9 0 27 12.1 27 27v307.7c-.1 14.9-12.1 26.9-27 26.9z" fill="#c3161c"/><radialGradient id="A" cx="321.325" cy="196.424" r="180.824" gradientUnits="userSpaceOnUse"><stop offset=".276" stop-color="#9e1d20" stop-opacity="0"/><stop offset=".974" stop-color="#9e1d20" stop-opacity=".965"/><stop offset="1" stop-color="#9e1d20"/></radialGradient><path d="M474.9 377.2H167.7c-15 0-27.2-12.2-27.2-27.2V42.8c0-15 12.2-27.2 27.2-27.2h307.2c15 0 27.2 12.2 27.2 27.2V350a27.1 27.1 0 0 1-27.2 27.2z" fill="url(#A)"/><defs><path id="B" d="M489.9 377.2H152.8c-6.8 0-12.3-5.5-12.3-12.3v-337c0-6.8 5.5-12.3 12.3-12.3h337.1c6.8 0 12.3 5.5 12.3 12.3V365c-.1 6.8-5.5 12.2-12.3 12.2z"/><path id="C" d="M290.9 343.2h-8.3a1.54 1.54 0 0 1-1.5-1.5V327a1.54 1.54 0 0 1 1.5-1.5h8.3a1.54 1.54 0 0 1 1.5 1.5v14.7a1.54 1.54 0 0 1-1.5 1.5z"/></defs><clipPath id="D"><use xlink:href="#B"/></clipPath><g clip-path="url(#D)"><path d="M109.1 135.8c-.9 3.1.8 6.2 3.8 7s6.1-.9 6.9-3.7c.8-2.9-.6-6-3.6-7-2.9-1-6.2.7-7.1 3.7z" class="J"/><g class="K"><path d="M157.5 140.9c1.1-2.7-.4-5.9-3.2-7.1-2.9-1.2-6.1.2-7.3 3.2-1 3 .5 6.2 3.5 7.2 2.9.9 6.1-.5 7-3.3zm-9.3 38.8c.4-2.9-1.8-5.7-4.8-6.1-3.1-.5-5.9 1.7-6.3 4.8-.5 3.1 1.9 5.9 5 6.2 3.1.2 5.7-2 6.1-4.9zm-19.4 19.9c.1-3-2.3-5.6-5.4-5.7s-5.7 2.4-5.8 5.6c.1 3.2 2.6 5.8 5.7 5.7 3.1 0 5.5-2.6 5.5-5.6z"/></g><g class="J"><path d="M146.2 84c1.7-2.5 1.1-5.9-1.4-7.7s-6.1-1.2-7.9 1.5c-1.7 2.7-1 6.2 1.6 7.8s6.1.9 7.7-1.6zm35.2-22.8c-2.2-2.2-5.7-2.1-8 .2s-2.2 5.9.2 8c2.3 2 5.8 1.9 7.9-.3s2-5.7-.1-7.9zm-22.9 6.4c1.9-2.3 1.7-5.8-.6-7.8s-5.9-1.8-8 .7c-2 2.5-1.6 6.1.8 8 2.4 1.8 5.9 1.5 7.8-.9z"/></g><g class="K"><path d="M522.6 133.7c-3 1-4.5 4.1-3.7 6.9.8 2.9 3.9 4.6 6.9 3.8s4.7-3.9 3.9-7c-.9-3-4.2-4.6-7.1-3.7zm-19.4-.5c-2.9 1.1-4.5 4.3-3.5 7.1 1 2.9 4.1 4.5 7.1 3.6s4.6-4.1 3.6-7.2c-1-2.9-4.2-4.5-7.2-3.5zm-327.6-27.9c1.6-2.5 1-5.8-1.5-7.6s-6.1-1.2-7.8 1.4c-1.7 2.7-1 6.1 1.7 7.7 2.6 1.6 6 1 7.6-1.5zm76.7 239.9a5.53 5.53 0 0 0 2.9 7.4c3 1.2 6.3-.2 7.4-3.1s-.3-6.1-3-7.2-5.9.1-7.3 2.9z"/></g><g class="J"><path d="M324.1 359.7c-.1-3.1-2.6-5.5-5.6-5.5-3-.1-5.5 2.3-5.6 5.4s2.3 5.7 5.6 5.8c3.2 0 5.7-2.6 5.6-5.7zM481.9 299c-1.6 2.6-.9 6 1.7 7.7s6.1.9 7.8-1.9c1.6-2.8.8-6.3-1.9-7.8s-6.1-.6-7.6 2zm-328.1 6.4c2.6-1.7 3.4-5.1 1.8-7.7-1.5-2.6-4.9-3.5-7.6-2.1-2.7 1.5-3.6 5-2 7.8 1.7 2.8 5.2 3.7 7.8 2zM313.4 396c.1-3.1-2.3-5.6-5.3-5.8s-5.7 2.1-6 5.1c-.3 3.1 2.1 5.8 5.3 6s5.9-2.3 6-5.3zm-82.1-.6c-1.3 2.8 0 6.2 3 7.4s6.3-.2 7.4-3.1-.3-6.1-3.1-7.2-6 0-7.3 2.9z"/></g><g class="K"><path d="M254.5 410.2c3.1.9 6.2-.8 7-3.8s-.9-6.1-3.7-6.9c-2.9-.8-6 .6-7 3.6-1 2.8.6 6.2 3.7 7.1zM224.9 351c-1.7 2.6-.8 6.1 1.9 7.7s6.1.7 7.6-2.1c1.4-2.7.6-6.1-2-7.6-2.5-1.5-5.9-.6-7.5 2zm46.9 1.7c-.9 2.9.8 6.1 3.9 6.9 3.1.9 6.2-1.1 6.9-4.1s-1.1-5.9-3.9-6.7c-2.9-.8-5.9.9-6.9 3.9z"/></g><g class="J"><path d="M323.2 377.9c.1 3.1 2.7 5.6 5.8 5.4 3.2-.2 5.5-2.9 5.2-6s-2.9-5.4-5.8-5.2-5.2 2.6-5.2 5.8zm-20.6-.7c-.3 3.1 2 5.8 5.2 6s5.8-2.3 5.9-5.4-2.2-5.6-5.2-5.8-5.6 2.1-5.9 5.2z"/></g><g class="K"><path d="M110.1 246.7c3-.7 4.9-3.6 4.3-6.5-.5-3-3.4-5-6.5-4.5s-5.1 3.4-4.5 6.6 3.7 5.1 6.7 4.4zm19.7-26.5c-.3-3-2.9-5.3-6-5.1a5.53 5.53 0 0 0-5.1 6.2c.4 3.2 3.2 5.5 6.3 5 3-.3 5.2-3.1 4.8-6.1z"/></g><g class="J"><path d="M491.6 280.9c-1.2 2.8-.2 6.1 2.6 7.5 2.7 1.4 6.2.2 7.5-2.7s.1-6.3-2.7-7.5c-2.8-1.3-6.2-.1-7.4 2.7zm19.9-.1c-1.1 2.8.1 6 2.9 7.3s6.2 0 7.4-3-.2-6.3-3.1-7.4c-2.9-1-6.1.3-7.2 3.1z"/></g><path d="M461.2 259.8c-1.1 2.7.1 5.9 2.9 7.3a5.53 5.53 0 0 0 7.4-2.9c1.2-3-.2-6.3-3.1-7.3-2.8-1.2-6.1.2-7.2 2.9z" class="L"/><path d="M299.6 47.8c2.9-.4 5.1-3.1 4.8-6.2s-3.1-5.3-6.2-4.9c-3.2.3-5.3 3.3-4.8 6.3s3.3 5.1 6.2 4.8z" class="K"/><path d="M263.5 31.7c1 3 4 4.5 6.8 3.7s4.5-3.9 3.7-6.9-3.9-4.7-6.9-3.9c-2.9.9-4.5 4.2-3.6 7.1z" class="J"/><g class="K"><path d="M244.3 39.3c1.3 2.8 4.6 4.1 7.2 2.9 2.7-1.2 4-4.3 2.9-7.2s-4.4-4.4-7.3-3.1c-2.8 1.2-4.1 4.6-2.8 7.4zm59.3-34c.3 3.1 2.9 5.4 5.9 5.2 3-.1 5.4-2.6 5.4-5.7S312.2-.8 309-.6c-3.2.1-5.6 2.8-5.4 5.9z"/></g><g class="J"><path d="M357.2 8.4c.6-3-1.5-6-4.7-6.5-3.2-.6-6.1 1.7-6.5 4.7-.4 3.1 1.7 5.8 4.7 6.3 2.9.5 5.9-1.5 6.5-4.5zm-26.4-9c-3.2-.2-5.9 2.3-6 5.4s2.3 5.6 5.3 5.8 5.7-2.1 6-5.1c.3-3.2-2-5.9-5.3-6.1zM262 13.1c.9 2.9 4 4.7 6.9 3.9 2.9-.9 4.7-3.8 4-6.8s-3.9-4.9-7-4c-3 .8-4.8 3.9-3.9 6.9zm-29.2-8.5c1.3 2.9 4.5 4 7.3 3 2.8-1.1 4.2-4.3 3.1-7.2s-4.4-4.3-7.4-3.1c-2.9 1.1-4.2 4.6-3 7.3z"/></g><g class="K"><path d="M385.9 55.5a5.53 5.53 0 0 0-2.9-7.4c-3-1.2-6.3.2-7.3 3.1-1.1 2.9.3 6.1 3 7.2 2.7 1.2 5.9 0 7.2-2.9zm6.5-23.1c-2.9-1.3-6.2.2-7.3 3-1.1 2.9.2 6 2.9 7.2s5.9-.1 7.3-2.8c1.3-2.7 0-6.1-2.9-7.4zm21 17.4c1.7-2.6.8-6.1-1.9-7.7s-6.1-.7-7.6 2.1c-1.4 2.7-.6 6.1 2 7.6 2.5 1.4 5.8.6 7.5-2zM253.5 55c1.3 2.8 4.5 4.1 7.2 3 2.8-1.1 4.1-4.3 3.1-7.2-1.1-2.9-4.3-4.3-7.3-3.2-3 1.2-4.3 4.6-3 7.4zm-126.7 64.9c1.1-2.8-.1-6-2.9-7.3s-6.2 0-7.4 3 .2 6.3 3.1 7.4c2.8 1 6.1-.3 7.2-3.1z"/></g><path d="M135.6 101.5c1.4-2.7.5-6-2.2-7.5s-6.2-.6-7.7 2.2-.4 6.3 2.3 7.6c2.9 1.4 6.2.3 7.6-2.3z" fill="#9e1e22"/><g class="K"><path d="M252.4-2.9c1 3 4.1 4.5 7 3.7s4.6-3.9 3.8-6.9-3.9-4.7-7-3.8c-3.1.8-4.7 4.1-3.8 7zm41-9c.4 3.1 3.1 5.2 6.1 4.9 3-.2 5.3-2.9 5.1-6s-2.9-5.4-6.1-5.2c-3.2.4-5.5 3.2-5.1 6.3zm21-1.5c.1 3.1 2.6 5.5 5.6 5.5 3 .1 5.5-2.3 5.6-5.4s-2.4-5.7-5.6-5.8c-3.2.1-5.7 2.6-5.6 5.7z"/></g><g class="J"><path d="M341.5-17.9c-3.2-.3-5.9 2-6.2 5.1-.2 3.1 2 5.8 5 6 3 .3 5.7-1.8 6.1-4.9.5-3-1.7-5.9-4.9-6.2zm10.2 38c-3.1-.6-6 1.5-6.4 4.6-.4 3 1.6 5.8 4.5 6.4 2.9.5 5.8-1.5 6.4-4.5s-1.4-5.9-4.5-6.5zm62.5 2.8c-2.9-1.5-6.3-.4-7.7 2.3-1.4 2.8-.3 6.1 2.4 7.5a5.71 5.71 0 0 0 7.6-2.2c1.6-2.6.6-6.2-2.3-7.6zm9.3-15.7c-2.8-1.5-6.3-.4-7.7 2.3-1.4 2.8-.4 6.1 2.3 7.5s6 .5 7.5-2.2c1.6-2.6.7-6.1-2.1-7.6zm19.9 19c1.8-2.5 1.2-6.1-1.5-7.9-2.7-1.7-6.2-1-7.8 1.6-1.7 2.6-.9 6.1 1.6 7.7 2.4 1.7 5.9 1.2 7.7-1.4z"/></g><g class="K"><path d="M420.2 69.8c-2.5-2-6.1-1.4-7.9 1.1-1.8 2.6-1.2 5.9 1 7.8 2.3 1.8 5.8 1.4 7.8-1 2.1-2.3 1.6-5.9-.9-7.9zm54.9-24c-2.3-2.2-5.9-2.2-8 .1-2.1 2.2-2.1 5.8.1 7.8 2.1 2.2 5.6 2.2 7.8.1 2.3-2.1 2.3-5.7.1-8zm-72.8 12c-2.8-1.6-6.2-.7-7.7 2.1-1.4 2.7-.5 6.1 2 7.6 2.6 1.4 5.9.6 7.6-1.9 1.7-2.7.9-6.3-1.9-7.8z"/></g><path d="M225.9 77.9c2.3-1.9 2.9-5.2 1.1-7.7-1.7-2.5-5.4-3.2-7.9-1.2s-3 5.5-1 7.9c1.9 2.4 5.4 2.9 7.8 1z" fill="#9e1e22"/><g class="K"><path d="M212.9 42.6c2.5-1.7 3.3-5.1 1.6-7.7-1.6-2.6-5.2-3.4-7.9-1.6-2.6 1.9-3.3 5.4-1.5 7.9 1.9 2.5 5.4 3.1 7.8 1.4zm-3.8 18.3c1.9 2.4 5.4 2.9 7.7 1.1 2.4-1.7 2.9-5.1 1.2-7.7-1.7-2.5-5.3-3.1-7.8-1.3-2.5 1.9-3 5.5-1.1 7.9zm258.7 179.9c-.8 2.8.9 5.9 3.9 6.8 2.9.9 6.1-.8 7-3.9s-1.1-6.2-4.1-6.9c-3.1-.7-6 1.2-6.8 4zm18.7-.1c-.6 2.9 1.1 5.8 4.1 6.7 3 .8 6.1-1 6.8-4 .7-3.1-1.1-6.1-4.2-6.7-3-.7-6 1.1-6.7 4zm37 1.1c-.6 2.9 1.2 5.9 4.3 6.6 3 .7 6.1-1.2 6.7-4.4.6-3.1-1.4-6.1-4.5-6.6s-6 1.5-6.5 4.4zm-7.7 2.6c.8-3.1-1.3-6.2-4.3-6.8-3.1-.6-5.9 1.4-6.6 4.3s1.2 6 4.2 6.7c2.9.9 6-1 6.7-4.2zM491.3 201c-.1 2.9 2.3 5.4 5.4 5.5s5.7-2.3 5.8-5.5c-.1-3.2-2.6-5.6-5.7-5.5-3.1.2-5.5 2.6-5.5 5.5zm18.2.1c-.1 3 2.3 5.6 5.4 5.7s5.7-2.4 5.8-5.6c-.1-3.2-2.6-5.8-5.7-5.7s-5.6 2.6-5.5 5.6zm18.1.1c-.1 3 2.3 5.5 5.4 5.6s5.7-2.4 5.8-5.6c-.1-3.2-2.6-5.7-5.7-5.6s-5.5 2.6-5.5 5.6zm-47.8 131.9c-1.9 2.3-1.7 5.8.6 7.8s5.9 1.8 8-.7c2-2.5 1.6-6.1-.8-8-2.5-1.8-6-1.4-7.8.9zm.9-73.3c-1.1 2.7.4 5.9 3.2 7.1 2.9 1.2 6.1-.2 7.3-3.2 1-3-.5-6.2-3.5-7.2-2.9-.9-6 .6-7 3.3z"/></g><path d="M472.7 278.2c-1.4 2.6-.2 5.9 2.5 7.4s6.1.4 7.5-2.4c1.5-2.8.2-6.2-2.6-7.5s-6-.1-7.4 2.5z" class="L"/><g class="K"><path d="M489.5 61.8c-2-2.4-5.7-2.7-8-.7s-2.6 5.5-.7 7.8c1.8 2.4 5.3 2.8 7.8.9s2.9-5.5.9-8zm-23.5.7c-2.2-2.3-5.8-2.5-8-.3s-2.3 5.7-.2 7.9 5.6 2.3 7.9.3c2.4-1.9 2.5-5.5.3-7.9zm36.3 16.7c-1.8-2.7-5.4-3.3-7.9-1.5s-3.1 5.2-1.5 7.7 5 3.3 7.7 1.6c2.7-1.6 3.4-5.1 1.7-7.8zm-42.2 4c-2.1-2.4-5.6-2.7-7.9-.6s-2.6 5.5-.7 7.8c1.9 2.2 5.3 2.6 7.8.7 2.3-1.9 2.8-5.5.8-7.9z"/></g><g class="J"><path d="M531.6 174.7c-3.1.4-5.2 3.1-4.9 6.1.2 3 2.9 5.3 6 5.1s5.4-2.9 5.2-6.1a5.59 5.59 0 0 0-6.3-5.1zm-23.2 5.9c.3 3 2.9 5.3 6 5.1a5.53 5.53 0 0 0 5.1-6.2c-.4-3.2-3.2-5.5-6.3-5-2.9.3-5.1 3.1-4.8 6.1z"/></g><g class="K"><path d="M452.8 124c1.5 2.6 4.9 3.5 7.6 2.1 2.8-1.4 3.8-4.9 2.2-7.7-1.5-2.8-5.1-3.7-7.7-2-2.7 1.6-3.5 5-2.1 7.6zm9.8 171.4c-1.6 2.5-1 5.8 1.5 7.6s6.1 1.2 7.8-1.4c1.7-2.7 1-6.1-1.7-7.7s-6-.9-7.6 1.5zm-247.8 98.1c2.8 1.5 6.3.4 7.7-2.3 1.4-2.8.4-6.1-2.3-7.5s-6-.5-7.5 2.2c-1.7 2.6-.8 6.1 2.1 7.6z"/></g><path d="M458.6 362.6c-2-2.3-5.5-2.6-7.8-.7-2.4 1.8-2.8 5.3-.9 7.8s5.4 2.9 8 .9c2.4-2.1 2.7-5.7.7-8z" class="J"/><g class="K"><path d="M188.1 353.3a5.51 5.51 0 0 0 8-.6c1.9-2.4 1.5-5.8-.7-7.9-2.3-2-5.8-1.7-7.9.5-2.2 2.3-1.9 5.8.6 8zM208 339c-1.9 2.4-1.5 5.9 1 7.9 2.6 1.8 6.1 1.3 7.9-1.3 1.8-2.5 1.3-6-1.1-7.7-2.4-1.8-5.8-1.3-7.8 1.1zm27.9 4c2.8 1.6 6.2.7 7.7-2.1 1.4-2.7.5-6.1-2-7.6-2.6-1.4-5.9-.7-7.6 1.9-1.7 2.7-.9 6.2 1.9 7.8z"/></g><path d="M416.7 384.5c-2.7 1.4-3.7 4.7-2.4 7.5 1.4 2.8 4.8 3.8 7.6 2.4 2.8-1.5 3.8-5 2.3-7.7s-4.8-3.6-7.5-2.2z" class="L"/><path d="M407.6 368.7c-2.7 1.4-3.8 4.7-2.4 7.5 1.3 2.8 4.8 3.9 7.7 2.4 2.9-1.4 3.9-5 2.4-7.7-1.7-2.7-5-3.5-7.7-2.2z" class="J"/><path d="M434.3 374c-2.5 1.6-3.3 5-1.6 7.7 1.6 2.6 5.1 3.4 7.8 1.7 2.7-1.8 3.3-5.4 1.5-7.9-1.8-2.6-5.2-3.2-7.7-1.5z" class="L"/><g class="K"><path d="M385.8 403.6c-1-3-4.1-4.5-6.9-3.7-2.9.8-4.6 3.9-3.8 6.9s3.9 4.7 7 3.9c3.1-.9 4.7-4.2 3.7-7.1zm-9.5-16c-.9-3-4-4.7-6.9-3.9-2.9.9-4.7 3.8-4 6.8s3.9 4.9 7 4c3-.8 4.8-3.9 3.9-6.9z"/></g><path d="M405.4 396.1c-1.3-2.9-4.5-4-7.3-3-2.8 1.1-4.2 4.3-3.1 7.2s4.4 4.3 7.4 3.1c3-1.1 4.3-4.5 3-7.3z" class="L"/><path d="M365.6 409.1c-.7-3-3.6-4.9-6.6-4.3-3 .5-5 3.4-4.5 6.5s3.4 5.1 6.6 4.5 5.1-3.7 4.5-6.7z" class="K"/><path d="M374.7 369.1c-1-3-4-4.5-6.9-3.7-2.8.8-4.5 3.9-3.7 6.9s3.9 4.7 6.9 3.9c3.1-.9 4.7-4.3 3.7-7.1z" class="J"/><path d="M425.3 358.2c-2.5 1.7-3.3 5.1-1.6 7.7 1.6 2.6 5.2 3.4 7.9 1.6 2.6-1.9 3.3-5.4 1.5-7.9s-5.3-3.2-7.8-1.4z" class="K"/><path d="M143.4 287c2.8-1.4 3.8-4.7 2.7-7.4-1.2-2.8-4.5-4-7.4-2.8s-4.1 4.6-2.8 7.5c1.2 2.9 4.7 4 7.5 2.7z" class="J"/><path d="M441.8 345.7a5.76 5.76 0 0 0-.8 7.9c1.9 2.4 5.6 2.8 8 .7 2.5-2.1 2.8-5.7.7-8s-5.7-2.5-7.9-.6z" class="K"/><path d="M473.8 348.1c-2.2-2.1-5.8-2.1-7.8.1-2.2 2.1-2.2 5.6-.1 7.8 2.1 2.3 5.7 2.3 8 .1 2.2-2.2 2.2-5.8-.1-8z" class="L"/><g class="K"><path d="M435.4 309.5c-2.3-2.1-5.8-2.1-7.8 0-2.1 2-2.2 5.5-.1 7.8s5.7 2.3 8 .1c2.2-2.2 2.2-5.8-.1-7.9zm9.2 16.7c-2.2-2.2-5.7-2.3-7.8-.3-2.1 2.1-2.3 5.5-.3 7.8s5.6 2.6 7.9.4 2.4-5.7.2-7.9zm-32.2-3.4c-2.3 1.9-2.9 5.2-1.1 7.7 1.7 2.5 5.4 3.2 7.9 1.2s3-5.5 1-7.9-5.5-2.8-7.8-1zm-227-46c-1.5-2.6-4.9-3.5-7.6-2.1-2.8 1.4-3.8 4.9-2.1 7.7 1.5 2.8 5.1 3.7 7.7 2s3.4-5.1 2-7.6z"/></g><path d="M135.9 321.6c1.8 2.7 5.4 3.3 7.9 1.5s3.1-5.2 1.5-7.7-5.1-3.3-7.7-1.6c-2.6 1.6-3.4 5.1-1.7 7.8z" class="J"/><g class="L"><path d="M468.9 145.1c2.9-1.1 4.3-4.3 3.2-7.3-1.2-3-4.6-4.3-7.4-3s-4.1 4.5-3 7.2c1.1 2.8 4.3 4.2 7.2 3.1zm33.7 154.2c-1.4 2.7-.5 6 2.2 7.5 2.6 1.5 6.2.6 7.7-2.2s.4-6.3-2.3-7.6c-2.8-1.4-6.2-.4-7.6 2.3zm15.8-37.7c-.8 2.9.6 6 3.6 7 2.9 1 6.2-.6 7.1-3.7s-.8-6.2-3.8-7c-2.9-.8-6 .8-6.9 3.7zm-19.1.2c-1 2.9.6 6.1 3.4 7.2 2.9 1.1 6.1-.5 7.2-3.5 1.1-3.1-.5-6.3-3.5-7.2-3-1-6.1.6-7.1 3.5zm-4.4-148c-2.8 1.4-3.8 4.7-2.7 7.4 1.2 2.8 4.6 4 7.4 2.8 2.9-1.2 4.1-4.6 2.8-7.5s-4.8-4.1-7.5-2.7zm20.2.4c-2.8 1.3-4.1 4.5-3 7.3s4.3 4.2 7.2 3.1 4.3-4.4 3.1-7.3a5.33 5.33 0 0 0-7.3-3.1zm-9.4-18.8c-2.7 1.5-3.6 4.9-2.2 7.5 1.4 2.7 4.7 3.7 7.5 2.4a5.53 5.53 0 0 0 2.4-7.6c-1.5-2.9-5.1-3.8-7.7-2.3zm-34 125.7c-.3 2.9 1.7 5.7 4.7 6.3 3.1.5 6-1.6 6.4-4.8s-1.8-6-4.9-6.3c-3-.3-5.8 1.8-6.2 4.8zm54.9.5c-.3 3 1.8 5.7 4.9 6.1 3 .4 5.9-1.8 6.3-5 .3-3.2-2-5.9-5.1-6.2-3.2-.1-5.9 2.1-6.1 5.1zm-7.2 1.3c.4-3.2-2-6-5.1-6.3-3.1-.2-5.7 2-6.1 5s1.8 5.8 4.8 6.2c3.2.6 6-1.7 6.4-4.9zM473.2 201c-.1 3 2.4 5.5 5.4 5.6 3.1.1 5.7-2.3 5.8-5.6-.1-3.2-2.6-5.7-5.7-5.6s-5.6 2.6-5.5 5.6zm16.9 20c-.4 2.9 1.8 5.7 4.8 6.1 3.1.5 5.9-1.7 6.3-4.8.5-3.1-1.9-5.9-5-6.2-3.1-.2-5.7 2-6.1 4.9zm1.9 95.8c-1.7 2.5-1.1 5.9 1.4 7.7s6.1 1.2 7.9-1.5c1.7-2.7 1-6.2-1.6-7.8-2.6-1.7-6-1-7.7 1.6zm-21.8-.8a5.56 5.56 0 0 0 .9 7.8c2.4 2 6 1.5 8-1s1.4-6.2-1.1-8-5.9-1.2-7.8 1.2zm-2.1-154.9c.8 2.8 3.7 4.7 6.7 4s5-3.7 4.1-6.8-4-4.9-6.9-3.9c-3 .8-4.7 3.9-3.9 6.7zm29.6-2.3c-.7-3.1-3.8-4.9-6.8-4.1a5.61 5.61 0 0 0-4.1 6.6c.6 2.9 3.6 4.7 6.7 4.1 3.1-.5 4.9-3.5 4.2-6.6zm30.4-4.8c-3.1.7-4.9 3.6-4.3 6.5.5 3 3.4 5 6.5 4.5s5.1-3.4 4.5-6.6c-.6-3.1-3.7-5.1-6.7-4.4zm-26.8 25.8c-.4-3.1-3.2-5.3-6.2-4.9-3.1.5-5.3 3.2-4.9 6.1s3 5.1 6.1 4.9c3-.2 5.5-2.9 5-6.1zm-29.4 1.1c.4 2.9 3.1 5.1 6.2 4.8s5.3-3.1 4.9-6.2c-.3-3.2-3.3-5.3-6.3-4.8-3.1.5-5.1 3.2-4.8 6.2zm11.4-62.1c-1.4-2.8-4.8-3.9-7.5-2.4s-3.8 4.8-2.5 7.4c1.4 2.6 4.6 3.8 7.4 2.5s4.1-4.7 2.6-7.5zm21.9 41.4c.7 2.9 3.5 4.9 6.6 4.4 3-.5 5.1-3.6 4.4-6.7-.7-3.2-3.7-5.1-6.7-4.3-3.1.7-5 3.7-4.3 6.6zm-13.4-21.8c-1.1-3-4.4-4.4-7.3-3.3-2.9 1.2-4.3 4.3-3.3 7 .9 2.8 4.1 4.3 7 3.3 3-.8 4.6-4 3.6-7zM302.9 413.6c.2-3.1-2-5.8-5-6-3-.3-5.7 1.8-6.1 4.9-.4 3 1.8 5.9 5 6.3 3.1.1 5.9-2.2 6.1-5.2zm42-55.9c-.5-3-3.3-5.1-6.2-4.8-2.9.4-5.1 3.1-4.8 6.2s3.1 5.3 6.2 4.9c3.1-.3 5.3-3.2 4.8-6.3zm-41.7 1.3c.3-3-1.9-5.8-4.8-6.2-2.9-.3-5.7 1.7-6.3 4.7a5.57 5.57 0 0 0 4.8 6.4c3.2.4 6-1.8 6.3-4.9zm-22.1 33.4c-.6 3 1.5 6 4.7 6.5 3.2.6 6.1-1.7 6.5-4.7.4-3.1-1.7-5.8-4.7-6.4-3-.5-5.9 1.5-6.5 4.6zm-16.7 1.7c3.1.9 6.3-.9 7-3.9s-1.1-6-4-6.9c-2.9-.8-6 .9-7 3.8-.8 3 .9 6.1 4 7zm70.2 1.3c-.3-3.1-2.9-5.4-5.9-5.2-3 .1-5.4 2.6-5.4 5.7s2.7 5.6 5.9 5.4c3.3-.1 5.7-2.8 5.4-5.9zm21-2.7c-.6-3-3.5-5.1-6.5-4.6-3 .6-5.1 3.2-4.7 6.3.4 3 3.3 5.3 6.5 4.7 3.2-.5 5.3-3.4 4.7-6.4zm-31.7 21.4c-.1-3.1-2.6-5.5-5.6-5.5-3-.1-5.5 2.3-5.6 5.4s2.4 5.7 5.6 5.8c3.1 0 5.7-2.6 5.6-5.7zm41.3-61c-.9-3-4-4.7-6.8-3.9s-4.7 3.7-4 6.7 3.8 5 6.9 4.1 4.8-4 3.9-6.9zm-99.4 22.6c3 .9 6.1-.8 6.9-3.8s-.9-6.1-3.7-6.9-5.9.7-6.9 3.7c-.9 2.8.7 6.1 3.7 7zm-20-7.4c2.9 1.3 6.2-.2 7.3-3 1.1-2.9-.2-6-2.9-7.2s-5.9 0-7.3 2.8c-1.2 2.8 0 6.1 2.9 7.4zm-5.2 11.4c-1.3 2.9.1 6.2 3.1 7.4s6.3-.2 7.4-3.1c1-2.9-.4-6.2-3.2-7.3s-6 .2-7.3 3zm46 .9c3.1.6 6-1.5 6.4-4.6.4-3-1.6-5.8-4.5-6.4-2.9-.5-5.8 1.5-6.4 4.5-.6 3.1 1.4 5.9 4.5 6.5zm170.3-41c2.2 2.2 5.7 2.1 8-.2s2.2-5.9-.2-8c-2.3-2-5.8-1.9-7.9.3-2.1 2.1-2.1 5.7.1 7.9zm-5.7-20.4c2.3 2.1 5.8 1.8 7.9-.5 2.1-2.4 1.6-6-.8-7.9-2.5-1.9-5.8-1.5-7.8.7-1.9 2.1-1.6 5.6.7 7.7zm10.7-35.7c1.6-2.8.7-6.2-2.1-7.7-2.7-1.4-6.1-.5-7.6 2-1.4 2.6-.6 5.9 1.9 7.6 2.7 1.7 6.2.9 7.8-1.9zm-21 11c-1.8 2.3-1.4 5.8 1 7.8s5.9 1.6 7.9-.9 1.4-6.1-1.1-7.9c-2.6-1.9-5.9-1.3-7.8 1zm-96.1 118.1c-.4-3.1-3.1-5.2-6.1-4.9-3 .2-5.3 2.9-5.1 6s2.9 5.4 6.1 5.2a5.59 5.59 0 0 0 5.1-6.3zm105.8-312.2c-2-2.5-5.5-3-7.9-1s-2.8 5.5-1 7.8c1.9 2.3 5.2 2.9 7.8 1.1 2.4-1.7 3.1-5.4 1.1-7.9zM203.9 358.6c-1.8 2.5-1.2 6 1.4 7.9 2.7 1.8 6.3 1.1 7.9-1.5 1.7-2.6.9-6-1.6-7.7-2.4-1.7-5.9-1.1-7.7 1.3zm-9 15.9c-1.8 2.5-1.2 6.1 1.4 7.9 2.7 1.7 6.2 1 7.9-1.6s.9-6.1-1.6-7.7c-2.5-1.7-5.9-1.1-7.7 1.4zm29.1 3.4c2.9 1.5 6.3.4 7.7-2.3 1.4-2.8.3-6.1-2.4-7.5a5.71 5.71 0 0 0-7.6 2.2c-1.5 2.5-.6 6.1 2.3 7.6zm-44.9-8.4c2.5 2 6.1 1.6 8-.8s1.5-5.9-.8-7.8-5.8-1.7-7.8.6c-2.1 2.3-1.9 5.9.6 8zm217.1 10.8c-1.2-2.8-4.5-4.1-7.3-3.1-2.8 1.1-4.3 4.4-3.2 7.3 1 2.9 4.3 4.3 7.3 3.2 3-1.2 4.4-4.5 3.2-7.4zM271 408.8c-.7 3 1.2 6.1 4.4 6.7 3.1.6 6.1-1.4 6.6-4.5.5-3-1.5-6-4.4-6.5-2.9-.6-5.9 1.2-6.6 4.3zm83.7-34.4c-.6-3-3.5-5.1-6.4-4.5-2.9.5-4.9 3.3-4.5 6.4s3.3 5.2 6.4 4.6c3.2-.6 5.2-3.4 4.5-6.5zm57.5-22.7c-1.6-2.6-5-3.5-7.5-2.1-2.5 1.5-3.5 4.9-2 7.6 1.5 2.8 4.9 3.7 7.6 2.2a5.58 5.58 0 0 0 1.9-7.7zm-27.4-6c-1.3-2.8-4.5-4.1-7.2-3-2.8 1.1-4.1 4.3-3.1 7.2s4.3 4.3 7.3 3.1c2.9-1.1 4.2-4.5 3-7.3zm9.1 15.8c-1.3-2.8-4.6-4.1-7.2-2.9-2.7 1.2-4 4.3-2.9 7.2s4.4 4.4 7.3 3.1 4.2-4.6 2.8-7.4zm35.2-21.6c-1.9-2.4-5.4-2.9-7.7-1.1-2.4 1.7-2.9 5.1-1.2 7.7 1.7 2.5 5.3 3.1 7.8 1.3 2.6-2 3-5.5 1.1-7.9zm-33.5-6c-2.6 1.5-3.5 4.8-2.1 7.6s4.9 3.8 7.7 2.1c2.8-1.5 3.7-5.1 2-7.7s-5-3.4-7.6-2zm-280.8-175c.6-2.9-1.2-5.9-4.3-6.6-3-.7-6.1 1.2-6.7 4.4-.6 3.1 1.4 6.1 4.5 6.6 3 .5 5.9-1.4 6.5-4.4zm7.7-2.6c-.8 3.1 1.3 6.2 4.3 6.8 3.1.6 5.9-1.4 6.6-4.3s-1.2-6-4.2-6.7c-3-.9-6 1.1-6.7 4.2zm48 3.6c.8-2.8-.9-5.9-3.9-6.8-2.9-.9-6.1.8-7 3.9s1.1 6.2 4.1 6.9c3.1.7 6-1.1 6.8-4zm-18.8.1c.6-2.9-1.1-5.8-4.1-6.7-3-.8-6.1 1-6.8 4-.7 3.1 1.1 6.1 4.2 6.7 3 .7 6.1-1.1 6.7-4z"/></g><path d="M128.4 135.3c-1.1 3.1.5 6.3 3.5 7.2 2.9.9 6.1-.7 7.1-3.6s-.6-6.1-3.4-7.2a5.67 5.67 0 0 0-7.2 3.6z" class="J"/><g class="L"><path d="M110.6 199.5c.1-3-2.3-5.5-5.4-5.6s-5.7 2.4-5.8 5.6c.1 3.2 2.6 5.7 5.7 5.6s5.6-2.6 5.5-5.6zm36.3.2c.1-2.9-2.3-5.4-5.4-5.5s-5.7 2.3-5.8 5.5c.1 3.2 2.6 5.6 5.7 5.5s5.6-2.6 5.5-5.5zm18.2.1c.1-3-2.4-5.5-5.4-5.6-3.1-.1-5.7 2.3-5.8 5.6.1 3.2 2.6 5.7 5.7 5.6 3.1-.2 5.5-2.7 5.5-5.6zm1.4-20.1c.3-2.9-1.7-5.7-4.7-6.3-3.1-.5-6 1.6-6.4 4.8s1.8 6 4.9 6.3c3 .2 5.8-1.9 6.2-4.8zm-54.8-.6c.3-3-1.8-5.7-4.9-6.1-3-.4-5.9 1.8-6.3 5-.3 3.2 2 5.9 5.1 6.2 3.2.2 5.9-2.1 6.1-5.1zm7.1-1.3c-.4 3.2 2 6 5.1 6.3 3.1.2 5.7-2 6.1-5s-1.8-5.8-4.8-6.2c-3.1-.5-5.9 1.7-6.4 4.9zM187 81.5c-2.3-2.1-5.8-1.8-7.9.5-2.1 2.4-1.6 6 .8 7.9 2.5 1.9 5.8 1.5 7.8-.7 1.9-2.1 1.6-5.6-.7-7.7zm-19 3.2a5.56 5.56 0 0 0-.9-7.8c-2.4-2-6-1.5-8 1s-1.4 6.2 1.1 8c2.6 1.8 6 1.2 7.8-1.2zm9 56.2c1.1-2.7-.1-5.9-2.9-7.3a5.53 5.53 0 0 0-7.4 2.9c-1.2 3 .2 6.3 3.1 7.3 2.9 1.2 6.1-.1 7.2-2.9zm20.3-34.7c1.8-2.3 1.4-5.8-1-7.8s-5.9-1.6-7.9.9-1.4 6.1 1.1 7.9c2.6 1.9 5.9 1.3 7.8-1zm-20.9 11.1c-1.6 2.8-.7 6.2 2.1 7.7 2.7 1.4 6.1.5 7.6-2 1.4-2.6.6-5.9-2-7.6s-6.2-.9-7.7 1.9zm-10.9 5.3c1.4-2.6.2-5.9-2.5-7.4s-6.1-.4-7.5 2.4c-1.5 2.8-.2 6.2 2.6 7.5 2.8 1.2 6.1.1 7.4-2.5zm-32.9 182.7c2.7-1.5 3.6-4.9 2.2-7.5-1.4-2.7-4.7-3.7-7.5-2.4a5.53 5.53 0 0 0-2.4 7.6c1.5 2.9 5 3.9 7.7 2.3zm.5-64.8c-.7-2.9-3.5-4.9-6.6-4.4-3 .5-5.1 3.6-4.4 6.7.7 3.2 3.7 5.1 6.7 4.3 3-.6 4.9-3.6 4.3-6.6zm30.3-4.9c-3 .7-5 3.8-4.1 6.8.9 3.1 4 4.9 6.9 3.9 3-.9 4.7-4 3.9-6.8-.7-2.7-3.6-4.6-6.7-3.9zm-22.9 6.3c.7 3.1 3.8 4.9 6.8 4.1a5.61 5.61 0 0 0 4.1-6.6c-.6-2.9-3.7-4.7-6.7-4.1-3 .5-4.9 3.5-4.2 6.6zm-33.9-15.8c3.1-.4 5.2-3.1 4.9-6.1-.2-3-2.9-5.3-6-5.1s-5.4 2.9-5.2 6.1c.4 3.2 3.2 5.4 6.3 5.1zm30.3-5.2c.4 3.1 3.2 5.3 6.2 4.9 3.1-.5 5.3-3.2 4.9-6.1s-3-5.1-6.1-4.9c-3 .2-5.4 3-5 6.1zm18.3.4c.3 3.2 3.3 5.3 6.3 4.8s5.1-3.3 4.8-6.2c-.4-2.9-3.1-5.1-6.2-4.8-3.1.2-5.3 3-4.9 6.2zm-8.7 41c1.1 3 4.4 4.4 7.3 3.3 2.9-1.2 4.3-4.3 3.3-7-.9-2.8-4.1-4.3-7-3.3a5.46 5.46 0 0 0-3.6 7zm22.8-6.7c-2.9 1.1-4.3 4.3-3.2 7.3 1.2 3 4.6 4.3 7.4 3s4.1-4.5 3-7.2c-1-2.8-4.2-4.1-7.2-3.1zM115.7 267c3-1 4.5-4.1 3.7-6.9-.8-2.9-3.9-4.6-6.9-3.8s-4.7 3.9-3.9 7c.8 3 4.2 4.7 7.1 3.7zm19.3.5c2.9-1.1 4.5-4.3 3.5-7.1-1-2.9-4.1-4.5-7.1-3.6s-4.6 4.1-3.6 7.2c1.1 3 4.3 4.6 7.2 3.5zM366.4 48c.9-2.9-.8-6.1-3.9-6.9-3.1-.9-6.2 1.1-6.9 4.1s1.1 5.9 3.9 6.7c2.9.8 6-.9 6.9-3.9zm-140.3 1c1.6 2.6 5 3.5 7.5 2.1 2.6-1.5 3.5-4.9 2-7.6-1.5-2.8-4.9-3.7-7.6-2.2-2.7 1.6-3.6 5.1-1.9 7.7zm57.4-22.7c.6 3 3.5 5.1 6.4 4.5 2.9-.5 4.9-3.3 4.5-6.4s-3.3-5.2-6.4-4.6-5.1 3.5-4.5 6.5zM314.2 41c.1 3.1 2.6 5.5 5.6 5.5 3 .1 5.5-2.3 5.6-5.4s-2.3-5.7-5.6-5.8c-3.2.1-5.7 2.6-5.6 5.7zm27.1-4.2c-3.2-.4-6 1.8-6.3 4.9-.3 3 1.9 5.8 4.8 6.2 2.9.3 5.7-1.7 6.3-4.7a5.57 5.57 0 0 0-4.8-6.4zM273 47.7c.9 3 4 4.7 6.8 3.9s4.7-3.7 4-6.7-3.8-5-6.9-4.1c-3 .8-4.8 3.9-3.9 6.9zm51.6-24.8c-.1 3.1 2.2 5.6 5.2 5.8 2.9.2 5.5-2.1 5.8-5.1.3-3.1-2-5.8-5.2-6-3-.3-5.7 2.3-5.8 5.3zM293.8 6.3c-.4-3-3.3-5.3-6.5-4.7s-5.3 3.5-4.7 6.5 3.5 5.1 6.5 4.6c2.9-.6 5.1-3.3 4.7-6.4zM304 23.4c.3 3.1 2.9 5.4 5.8 5.2s5.3-2.7 5.2-5.8-2.7-5.6-5.8-5.4c-3.2.3-5.5 3-5.2 6z"/><path d="M242.1 20.4c1.2 2.8 4.5 4.1 7.3 3.1 2.8-1.1 4.3-4.4 3.2-7.3-1-2.9-4.3-4.3-7.3-3.2-3.1 1.2-4.5 4.5-3.2 7.4zm130.3 4.7c-3-.9-6.1.8-6.9 3.8s.9 6.1 3.7 6.9 5.9-.7 6.9-3.7c.9-2.9-.6-6.2-3.7-7zm-225.7 94.8c1.2-2.8.2-6.1-2.6-7.5-2.7-1.4-6.3-.2-7.6 2.7s-.1 6.3 2.7 7.5c2.9 1.2 6.2 0 7.5-2.7zm337.7-24.6c-2.6 1.7-3.4 5.1-1.8 7.7 1.5 2.6 4.9 3.5 7.6 2.1 2.7-1.5 3.6-5 2-7.8s-5.2-3.6-7.8-2zM272.7-8.4c.7 3 3.6 4.8 6.6 4.3s5-3.4 4.5-6.5-3.5-5.1-6.6-4.5c-3.2.6-5.2 3.7-4.5 6.7zm94.5.4c.7-3-1.2-6.1-4.4-6.7-3.1-.6-6.1 1.4-6.6 4.5-.5 3 1.5 6 4.4 6.5 3 .5 5.9-1.3 6.6-4.3zM156.4 101.7c1.6-2.6.9-6-1.7-7.7s-6.1-.9-7.8 1.9c-1.6 2.8-.8 6.3 1.9 7.8 2.6 1.5 6.1.6 7.6-2zm302.8-70.4c-2.5-2-6.1-1.6-8 .8s-1.5 5.9.8 7.8 5.8 1.7 7.8-.6c2.1-2.4 1.8-6-.6-8zm-24.9 10.8c1.8-2.5 1.2-6-1.4-7.9-2.7-1.8-6.3-1.1-7.9 1.5-1.7 2.6-.9 6 1.6 7.7 2.4 1.8 5.9 1.2 7.7-1.3zm2.1 42c-2.3-2.2-5.9-2.2-8 .1s-2.1 5.8 0 7.8c2 2.1 5.5 2.2 7.8.1 2.4-2.1 2.4-5.7.2-8zm9.1-16.5c-2.2-2.2-5.9-2-7.9.3s-1.9 5.7.2 7.8c2.1 2 5.6 1.9 7.8-.2s2.2-5.7-.1-7.9zm4.7-20.1a5.51 5.51 0 0 0-8 .6c-1.9 2.4-1.5 5.8.7 7.9 2.3 2 5.8 1.8 7.9-.5s1.8-5.9-.6-8zm-20 14.2c1.9-2.4 1.5-5.9-1-7.9-2.6-1.8-6.1-1.3-7.9 1.3-1.8 2.5-1.3 6 1.1 7.7 2.4 1.8 5.9 1.4 7.8-1.1zM221.6 16.3c2.7-1.4 3.7-4.7 2.4-7.5a5.53 5.53 0 0 0-7.6-2.4c-2.8 1.5-3.8 5-2.3 7.7s4.8 3.6 7.5 2.2zM407 5.3c1.3-2.8 0-6.2-3-7.4s-6.3.2-7.4 3.1.3 6.1 3 7.2c2.9 1.2 6.1 0 7.4-2.9zM383.7-9.4c-3.1-.9-6.2.8-7 3.8s.9 6.1 3.7 6.9c2.9.8 6-.6 7-3.6 1-2.9-.6-6.2-3.7-7.1zm-9.9 16c-3.1-.9-6.3.9-7 3.9s1.1 6 4 6.9c2.9.8 6-.9 7-3.8.9-3-.9-6.1-4-7zM397.6 21c1.3-2.9-.1-6.2-3.1-7.4s-6.3.2-7.4 3.1.4 6.2 3.2 7.3 6.1-.2 7.3-3zM202.8 91.2c2.3 2.1 5.8 2.1 7.8 0 2.1-2 2.2-5.5.1-7.8s-5.7-2.3-8-.1c-2.2 2.2-2.1 5.8.1 7.9zm-9.1-16.7c2.2 2.2 5.7 2.3 7.8.3 2.1-2.1 2.3-5.5.3-7.8s-5.6-2.6-7.9-.4c-2.4 2.2-2.5 5.7-.2 7.9zm-14-36.4c2 2.3 5.5 2.6 7.8.7 2.4-1.8 2.8-5.3.9-7.8s-5.4-2.9-8-.9c-2.4 2.1-2.7 5.7-.7 8zM204 26.7c2.5-1.6 3.3-5 1.6-7.7-1.6-2.6-5.1-3.4-7.8-1.7-2.7 1.8-3.3 5.4-1.5 7.9 1.8 2.6 5.2 3.2 7.7 1.5zm26.6 5.3c2.7-1.4 3.8-4.7 2.4-7.5-1.3-2.8-4.8-3.9-7.7-2.4-2.9 1.4-3.9 5-2.4 7.7 1.7 2.7 5 3.6 7.7 2.2zm-66.2 20.6c2.2 2.1 5.8 2.1 7.8-.1 2.2-2.1 2.2-5.6.1-7.8-2.1-2.3-5.7-2.3-8-.1-2.1 2.3-2.1 5.9.1 8z"/><path d="M242.6 66.8c2.6-1.5 3.5-4.8 2.1-7.6s-4.9-3.8-7.7-2.2c-2.8 1.5-3.7 5.1-2 7.7 1.7 2.7 5.1 3.5 7.6 2.1zM196.5 55a5.76 5.76 0 0 0 .8-7.9c-1.9-2.4-5.6-2.8-8-.7-2.5 2.1-2.8 5.7-.7 8s5.6 2.6 7.9.6zm276.2 45.3c-1.7-2.7-5.3-3.3-7.8-1.5-2.6 1.8-3.1 5.1-1.6 7.6 1.6 2.5 5 3.2 7.7 1.6s3.4-5 1.7-7.7zm7.4-21.1c-2-2.5-5.6-3-8-1.1s-2.8 5.5-1 7.8c1.9 2.4 5.2 3 7.8 1.2 2.5-1.7 3.1-5.4 1.2-7.9zm-317 275.7c2.3 2.2 5.9 2.2 8-.1 2.1-2.2 2.1-5.7-.1-7.8-2.1-2.2-5.6-2.2-7.8-.1s-2.3 5.7-.1 8zm29.7-21.8c2.3 2.2 5.9 2 7.9-.3s1.9-5.7-.2-7.8c-2.1-2-5.6-1.9-7.8.2-2.3 2.2-2.2 5.7.1 7.9zm9-16.5c2.3 2.2 5.9 2.2 8-.1s2.1-5.8 0-7.8c-2-2.1-5.5-2.2-7.8-.1s-2.4 5.7-.2 8zm16.2 14.3c2.5 2 6.1 1.4 7.9-1.1 1.8-2.6 1.2-5.9-1-7.8-2.3-1.8-5.8-1.4-7.8 1s-1.6 5.9.9 7.9zm-69.3 8c2 2.5 5.7 2.7 8 .7s2.6-5.5.7-7.8c-1.8-2.4-5.3-2.8-7.8-.9-2.4 1.9-2.8 5.5-.9 8zm-25.5-52.3a5.66 5.66 0 0 0 3-7.3c-1.1-2.8-4.3-4.2-7.2-3.1s-4.3 4.4-3.1 7.3c1 3 4.5 4.3 7.3 3.1zm49.1 51.6c2.2 2.3 5.8 2.5 8 .3s2.3-5.7.2-7.9-5.6-2.4-7.9-.3c-2.4 2-2.6 5.6-.3 7.9zm5.9-20.7c2.1 2.4 5.6 2.7 7.9.6s2.6-5.5.7-7.8c-1.9-2.2-5.3-2.6-7.8-.7-2.4 1.9-2.9 5.6-.8 7.9zm-20 4.1c2 2.5 5.5 3 8 1.1 2.4-1.9 2.8-5.5 1-7.8-1.9-2.4-5.2-3-7.8-1.2-2.6 1.7-3.2 5.3-1.2 7.9zm7.3-21.2c1.7 2.7 5.3 3.3 7.8 1.5 2.6-1.8 3.1-5.1 1.6-7.6-1.6-2.5-5-3.2-7.7-1.6-2.6 1.6-3.4 5-1.7 7.7zm-10.6-18.5c1.4 2.8 4.8 3.9 7.5 2.4s3.8-4.8 2.5-7.4c-1.4-2.6-4.6-3.8-7.4-2.5s-4.1 4.7-2.6 7.5zm32.7 18.4c2 2.5 5.5 3 7.9 1s2.8-5.5 1-7.8c-1.9-2.3-5.2-2.9-7.8-1.1-2.4 1.8-3.1 5.4-1.1 7.9z"/></g></g><path d="M292.6 143.4h57.1v177.7h-57.1zm68.6.3v177.2c15.1-1.8 26.7-14.7 26.7-30.2V173.9c0-15.6-11.6-28.4-26.7-30.2zm-80.1 0c-14.9 2-26.4 14.7-26.4 30.2v116.8c0 15.5 11.5 28.2 26.4 30.2V143.7z" fill="#fff"/><g class="J"><use xlink:href="#C"/><use xlink:href="#C" x="68.6"/></g><path d="M336.9 56.9h-31.4c-4.5 0-8.2 4-8.2 8.9v77.6h7.1V65.8c0-.7.5-1.3 1.1-1.3h31.4c.6 0 1.1.6 1.1 1.3v77.6h7.1V65.8c0-4.9-3.7-8.9-8.2-8.9z" fill="#fff"/><path d="M302.9 163.2h36.9v7.1h-36.9z" class="J"/></svg>